<?xml version="1.0" encoding="UTF-8" standalone="no" ?>
<!DOCTYPE svg PUBLIC "-//W3C//DTD SVG 1.1//EN" "http://www.w3.org/Graphics/SVG/1.1/DTD/svg11.dtd">
<svg xmlns="http://www.w3.org/2000/svg" xmlns:xlink="http://www.w3.org/1999/xlink" version="1.1" width="1080" height="1080" viewBox="0 0 1080 1080" xml:space="preserve">
<desc>Created with Fabric.js 5.2.4</desc>
<defs>
</defs>
<rect x="0" y="0" width="100%" height="100%" fill="transparent"></rect>
<g transform="matrix(1 0 0 1 540 540)" id="710568d9-3d25-4d94-99ab-a162ac58cd2f"  >
<rect style="stroke: none; stroke-width: 1; stroke-dasharray: none; stroke-linecap: butt; stroke-dashoffset: 0; stroke-linejoin: miter; stroke-miterlimit: 4; fill: rgb(255,255,255); fill-rule: nonzero; opacity: 1; visibility: hidden;" vector-effect="non-scaling-stroke"  x="-540" y="-540" rx="0" ry="0" width="1080" height="1080" />
</g>
<g transform="matrix(1 0 0 1 540 540)" id="325b9307-0236-4904-a48e-639eac92389f"  >
</g>
<g transform="matrix(33.75 0 0 33.75 540 540)"  >
<g style=""   >
		<g transform="matrix(1 0 0 1 0 14.93)"  >
<path style="stroke: none; stroke-width: 1; stroke-dasharray: none; stroke-linecap: butt; stroke-dashoffset: 0; stroke-linejoin: miter; stroke-miterlimit: 4; fill: #1DB954; fill-rule: nonzero; opacity: 1;" vector-effect="non-scaling-stroke"  transform=" translate(-16, -30.93)" d="M 27.449 31.676 L 4.551 31.676 C 4.1370000000000005 31.676 3.801 31.34 3.801 30.926 C 3.801 30.511999999999997 4.1370000000000005 30.176 4.551 30.176 L 27.448999999999998 30.176 C 27.863 30.176 28.198999999999998 30.511999999999997 28.198999999999998 30.926 C 28.198999999999998 31.34 27.863 31.676 27.449 31.676 z" stroke-linecap="round" />
</g>
		<g transform="matrix(1 0 0 1 3.02 -1.51)"  >
<path style="stroke: none; stroke-width: 1; stroke-dasharray: none; stroke-linecap: butt; stroke-dashoffset: 0; stroke-linejoin: miter; stroke-miterlimit: 4; fill: #1DB954; fill-rule: nonzero; opacity: 1;" vector-effect="non-scaling-stroke"  transform=" translate(-19.02, -14.49)" d="M 30.471 28.654 C 30.057 28.654 29.721 28.318 29.721 27.904 L 29.721 1.824 L 8.324 1.824 L 8.324 27.904 C 8.324 28.318 7.9879999999999995 28.654 7.574 28.654 C 7.16 28.654 6.824 28.318 6.824 27.904 L 6.824 1.074 C 6.824 0.6600000000000001 7.16 0.32400000000000007 7.574 0.32400000000000007 L 30.470999999999997 0.32400000000000007 C 30.884999999999998 0.32400000000000007 31.220999999999997 0.6600000000000001 31.220999999999997 1.074 L 31.220999999999997 27.904 C 31.221 28.318 30.885 28.654 30.471 28.654 z" stroke-linecap="round" />
</g>
		<g transform="matrix(1 0 0 1 3.02 -7.55)"  >
<rect style="stroke: none; stroke-width: 1; stroke-dasharray: none; stroke-linecap: butt; stroke-dashoffset: 0; stroke-linejoin: miter; stroke-miterlimit: 4; fill: #1DB954; fill-rule: nonzero; opacity: 1;" vector-effect="non-scaling-stroke"  x="-6.635" y="-0.75" rx="0" ry="0" width="13.27" height="1.5" />
</g>
		<g transform="matrix(1 0 0 1 3.02 -2.46)"  >
<rect style="stroke: none; stroke-width: 1; stroke-dasharray: none; stroke-linecap: butt; stroke-dashoffset: 0; stroke-linejoin: miter; stroke-miterlimit: 4; fill: #1DB954; fill-rule: nonzero; opacity: 1;" vector-effect="non-scaling-stroke"  x="-6.635" y="-0.75" rx="0" ry="0" width="13.27" height="1.5" />
</g>
		<g transform="matrix(1 0 0 1 3.02 2.63)"  >
<rect style="stroke: none; stroke-width: 1; stroke-dasharray: none; stroke-linecap: butt; stroke-dashoffset: 0; stroke-linejoin: miter; stroke-miterlimit: 4; fill: #1DB954; fill-rule: nonzero; opacity: 1;" vector-effect="non-scaling-stroke"  x="-6.635" y="-0.75" rx="0" ry="0" width="13.27" height="1.5" />
</g>
		<g transform="matrix(1 0 0 1 3.02 7.72)"  >
<rect style="stroke: none; stroke-width: 1; stroke-dasharray: none; stroke-linecap: butt; stroke-dashoffset: 0; stroke-linejoin: miter; stroke-miterlimit: 4; fill: #1DB954; fill-rule: nonzero; opacity: 1;" vector-effect="non-scaling-stroke"  x="-6.635" y="-0.75" rx="0" ry="0" width="13.27" height="1.5" />
</g>
		<g transform="matrix(1 0 0 1 -11.45 1.13)"  >
<path style="stroke: none; stroke-width: 1; stroke-dasharray: none; stroke-linecap: butt; stroke-dashoffset: 0; stroke-linejoin: miter; stroke-miterlimit: 4; fill: #1DB954; fill-rule: nonzero; opacity: 1;" vector-effect="non-scaling-stroke"  transform=" translate(-4.55, -17.13)" d="M 1.529 28.654 C 1.115 28.654 0.7789999999999999 28.318 0.7789999999999999 27.904 L 0.7789999999999999 6.365 C 0.7789999999999999 5.9510000000000005 1.115 5.615 1.529 5.615 L 7.574 5.615 C 7.9879999999999995 5.615 8.324 5.9510000000000005 8.324 6.365 C 8.324 6.779 7.9879999999999995 7.115 7.574 7.115 L 2.279 7.115 L 2.279 27.904000000000003 C 2.279 28.318 1.943 28.654 1.529 28.654 z" stroke-linecap="round" />
</g>
		<g transform="matrix(1 0 0 1 12.96 13.41)"  >
<path style="stroke: none; stroke-width: 1; stroke-dasharray: none; stroke-linecap: butt; stroke-dashoffset: 0; stroke-linejoin: miter; stroke-miterlimit: 4; fill: #1DB954; fill-rule: nonzero; opacity: 1;" vector-effect="non-scaling-stroke"  transform=" translate(-28.96, -29.41)" d="M 27.449 31.676 C 27.035 31.676 26.699 31.34 26.699 30.926 C 26.699 30.511999999999997 27.035 30.176 27.449 30.176 C 28.702 30.176 29.721 29.156 29.721 27.904 C 29.721 27.49 30.057 27.154 30.471 27.154 C 30.885 27.154 31.221 27.49 31.221 27.904 C 31.221 29.984 29.529 31.676 27.449 31.676 z" stroke-linecap="round" />
</g>
		<g transform="matrix(1 0 0 1 -11.45 13.41)"  >
<path style="stroke: none; stroke-width: 1; stroke-dasharray: none; stroke-linecap: butt; stroke-dashoffset: 0; stroke-linejoin: miter; stroke-miterlimit: 4; fill: #1DB954; fill-rule: nonzero; opacity: 1;" vector-effect="non-scaling-stroke"  transform=" translate(-4.55, -29.41)" d="M 4.551 31.676 C 2.471 31.676 0.7790000000000004 29.983999999999998 0.7790000000000004 27.904 C 0.7790000000000004 27.49 1.1150000000000004 27.154 1.5290000000000004 27.154 C 1.9430000000000003 27.154 2.2790000000000004 27.49 2.2790000000000004 27.904 C 2.2790000000000004 29.157 3.2990000000000004 30.176 4.551 30.176 C 5.804 30.176 6.824 29.156 6.824 27.904 C 6.824 27.49 7.16 27.154 7.574 27.154 C 7.9879999999999995 27.154 8.324 27.49 8.324 27.904 C 8.324 29.984 6.632 31.676 4.551 31.676 z" stroke-linecap="round" />
</g>
</g>
</g>
</svg>